<mxfile host="app.diagrams.net" modified="2023-09-23T19:46:02.090Z" agent="Mozilla/5.0 (Macintosh; Intel Mac OS X 10_15_7) AppleWebKit/537.36 (KHTML, like Gecko) Chrome/117.0.0.0 Safari/537.36" version="21.7.5" etag="HGeHF82OtaYaAAjykko0" type="github">
  <diagram name="Page-1" id="livssU1q9GP_sonoJI6H">
    <mxGraphModel>
      <root>
        <mxCell id="0" />
        <mxCell id="1" parent="0" />
      </root>
    </mxGraphModel>
  </diagram>
</mxfile>
